<?xml version="1.0" encoding="UTF-8" standalone="no"?>
<!-- Generator: Adobe Illustrator 15.0.0, SVG Export Plug-In . SVG Version: 6.00 Build 0)  -->

<svg
   xmlns:dc="http://purl.org/dc/elements/1.1/"
   xmlns:cc="http://creativecommons.org/ns#"
   xmlns:rdf="http://www.w3.org/1999/02/22-rdf-syntax-ns#"
   xmlns:svg="http://www.w3.org/2000/svg"
   xmlns="http://www.w3.org/2000/svg"
   xmlns:sodipodi="http://sodipodi.sourceforge.net/DTD/sodipodi-0.dtd"
   xmlns:inkscape="http://www.inkscape.org/namespaces/inkscape"
   version="1.1"
   id="svg5265"
   inkscape:version="0.92.4 (5da689c313, 2019-01-14)"
   sodipodi:docname="floorplan.svg"
   inkscape:label="鐏"
   x="0px"
   y="0px"
   width="2500"
   height="1500"
   viewBox="0 0 2500 1500"
   enable-background="new 0 0 1100 2300"
   xml:space="preserve"><metadata
   id="metadata110"><rdf:RDF><cc:Work
       rdf:about=""><dc:format>image/svg+xml</dc:format><dc:type
         rdf:resource="http://purl.org/dc/dcmitype/StillImage" /><dc:title></dc:title></cc:Work></rdf:RDF></metadata><defs
   id="defs108" />
<sodipodi:namedview
   units="px"
   id="namedview5267"
   inkscape:cy="921.13582"
   inkscape:cx="1250.3852"
   inkscape:zoom="0.35355339"
   showgrid="false"
   guidetolerance="10"
   gridtolerance="10"
   objecttolerance="10"
   borderopacity="1"
   bordercolor="#666666"
   pagecolor="#ffffff"
   inkscape:snap-grids="true"
   inkscape:object-paths="false"
   inkscape:snap-bbox="false"
   inkscape:current-layer="svg5265"
   inkscape:window-y="-8"
   inkscape:window-x="-8"
   inkscape:window-height="1017"
   inkscape:window-width="1920"
   inkscape:pageshadow="2"
   inkscape:pageopacity="0"
   inkscape:window-maximized="1">
    </sodipodi:namedview>

<g
   id="g1014"
   inkscape:label="图形"
   transform="rotate(-90,794.3911,751.85425)"><g
     inkscape:label="g5263"
     transform="translate(-216.47495,903.04835)"
     id="g5263">
    <path
   style="fill:#d7eef4;stroke:#d7eef4;stroke-width:10"
   d="m 407.846,1346.546 v -11 h -35 -35 v -82 -82 h 60 60 v -8 -8 h 34 c 28.889,0 34,0.451 34,3 0,2.597 7.667,3 57,3 49.334,0 57,-0.403 57,-3 0,-2.223 2.334,-3 9,-3 h 9 v 8 8 h 22 22 l -0.012,76.5 c -0.006,42.075 -0.59,83.926 -1.297,93 l -1.284,16.5 H 553.55 407.846 Z"
   inkscape:connector-curvature="0"
   id="path5607" /><path
   style="fill:#d7eef4;stroke:#d7eef4;stroke-width:10"
   d="m 337.846,589.546 v -24 h -10 -10 v -53 -53 h 10 10 v -45 -45 h 158 158 v 7 c 0,3.85 -0.969,7 -2.152,7 -1.464,0 -1.749,5.273 -0.891,16.5 0.694,9.075 1.695,60.825 2.225,115 l 0.962,98.5 H 495.919 337.846 Z"
   inkscape:connector-curvature="0"
   id="path5603" />
    <path
   style="fill:#c8c4b7;stroke:#c8c4b7;stroke-width:10"
   d="m 864.886,1347.335 v -11 h -25 -25 v -383 c 0,-381.667 -0.014,-383 -4,-383 -3.897,0 -4,-1.333 -4,-52 v -52 h 55 c 47.556,0 55,-0.406 55,-3 0,-2.588 -7,-3 -51,-3 h -51 v -46 -46 h 92 92 v 153 153 h 120 120 v 232 232 h -41 -41 v 16 16 h 42 42 v 34.676 c 0,19.072 -0.594,56.422 -1.32,83 l -1.319,48.324 h -46.681 -46.68 v 11 11 h -140 -140 z"
   inkscape:connector-curvature="0"
   id="path5611" />
    <path
   style="fill:#c8c4b7;stroke:#c8c4b7;stroke-width:10"
   d="m 572.163,1149.335 c -0.985,-2.568 -9.226,-3 -57.214,-3 -54.73,0 -56.063,-0.095 -56.063,-4 0,-3.912 -1.333,-4 -61,-4 h -61 v -254 -254 h 178 c 176.666,0 178,-0.03 178,-4 0,-3.899 1.333,-4 53,-4 h 53 v 258 258 h -71 -71 v 5.711 c 0,5.591 -0.283,5.737 -13.5,6.985 -7.425,0.702 -26.229,1.282 -41.786,1.29 -23.307,0.012 -28.488,-0.514 -29.437,-2.986 z"
   inkscape:connector-curvature="0"
   id="path5609" />
    <path
   style="fill:#d7eef4;stroke:#d7eef4;stroke-width:10"
   d="m 1015.846,653.546 c 0,-3.896 1.334,-4 51,-4 32.667,0 51,-0.719 51,-2 0,-1.285 -19.666,-2 -55,-2 h -55 v -52 c 0,-50.667 0.103,-52 4,-52 3.922,0 4,-1.333 4,-68 v -68 h 51 51 v -18 -18 h 20 20 v -6 -6 h 41 41 v 150 150 h -112 c -110.666,0 -112,-0.047 -112,-4 z"
   inkscape:connector-curvature="0"
   id="path5605" />
    <path
   style="fill:#d7eef4;stroke:#d7eef4;stroke-width:3.78349996"
   d="m 808.269,152.843 v -184 h 158.287 158.286 v 72.25 72.25 h 10.434 10.434 v 53.25 53.25 h -10.434 -10.434 v 21.25 21.25 h -46.315 -46.315 v 37.25 37.25 H 920.241 808.269 Z"
   inkscape:connector-curvature="0"
   id="path5601" />
    <path
   style="fill:#c8c4b7;stroke:#c8c4b7;stroke-width:7.0710001"
   d="M 315.752,152.708 V -30.787 h 161.574 161.573 v 6.011 6.011 h 10.607 10.606 v 82.378 82.378 h -10.606 -10.607 v 42.072 42.073 h 9.193 9.191 v 53.033 53.032 H 486.518 315.752 Z"
   inkscape:connector-curvature="0"
   id="path5597" />
    <path
   style="fill:#e6e6e6;stroke:#e6e6e6;stroke-width:10"
   d="m 672.344,554.875 c 0,-57.667 -0.09,-59 -4,-59 -3.863,0 -4,-1.334 -4,-39 0,-37.667 -0.137,-39 -4,-39 -3.619,0 -4,-1.334 -4,-14 v -14 h 8 8 v -27 -27 h -5 -5 v -53 -53 h 5 5 v -147 -147 h -167 -167 v -39 -39 h -11 -11 v -53 -53 h 11 11 v -28 -28 h -11 -11 v -53 -53 h 11 11 v -115 -115 h 30 30 v -17 -17 h -41 -41 v -81 -81 h 10 10 v -7 c 0,-3.85 0.9,-7 2,-7 1.101,0 2,-4.95 2,-11 v -11 h 120 120 v 11 11 h 25 25 v -11 -11 h 99 99 v 11 11 h 25 25 v -10 -10 h 87 87 v 10 10 h 36 36 v 29 29 h 11 11 v 59 59 h -35 -35 v 17 17 h 24 24 v 204 204 h 7 7 v 84 84 h -170 -170 v 54 c 0,52.666 0.099,54 4,54 3.947,0 4,1.333 4,100 0,98.666 -0.054,100 -4,100 -3.971,0 -4,1.333 -4,185 v 185 h -63 -63 z"
   inkscape:connector-curvature="0"
   id="path5593" />
    <path
   style="fill:#aaffff"
   d="m 406.491,1363.725 v -5.103 h 147.982 147.982 v 5.103 5.103 H 554.473 406.491 Z"
   inkscape:connector-curvature="0"
   id="path5429" />
    <path
   style="fill:#aaffff"
   d="m 1167.378,-248.364 v -2.563 h 90.867 90.866 v 2.563 2.563 h -90.866 -90.867 z"
   inkscape:connector-curvature="0"
   id="path6303" />
    <path
   style="fill:#bbaaaa"
   d="m 1140.119,-145.167 v -88.023 h 7.943 7.943 v 88.023 88.023 h -7.943 -7.943 z"
   inkscape:connector-curvature="0"
   id="path6339" />
    <path
   style="fill:#bbaaa1"
   d="m 798.491,517.091 v -54.873 h 4.183 4.183 v 54.873 54.873 h -4.183 -4.183 z"
   inkscape:connector-curvature="0"
   id="path6321" />
    <path
   style="fill:#bbaaa1"
   d="m 690.106,617.562 v -3.42 h 56.367 56.366 v 3.42 3.419 h -56.366 -56.367 z"
   inkscape:connector-curvature="0"
   id="path6335" />
    <path
   style="fill:#aaffff"
   d="m 305.292,514.063 v -55.949 h 5.4 5.4 v 55.949 55.949 h -5.4 -5.4 z"
   inkscape:connector-curvature="0"
   id="path6329" />
    <path
   style="fill:#aaffff"
   d="m 862.521,1363.612 v -5.102 h 141.942 141.941 v 5.102 5.103 H 1004.463 862.521 Z"
   inkscape:connector-curvature="0"
   id="path5417" />
    <path
   style="fill:#aaffff"
   d="m 1156.708,352.542 v -4.433 h 41.931 41.931 l 0.493,4.434 0.494,4.433 h -42.425 -42.424 z"
   inkscape:connector-curvature="0"
   id="path5415" />
    
        <path
   style="fill:none;stroke:#bbaaaa;stroke-width:2.83459997;stroke-linecap:round;stroke-linejoin:round"
   d="m 1156.551,-169.775 c 32.008,0 57.986,-27.904 57.986,-62.28"
   inkscape:connector-curvature="0"
   id="path4983" />
    
        <path
   style="fill:none;stroke:#bbaaaa;stroke-width:2.83459997;stroke-linecap:round;stroke-linejoin:round"
   d="m 1156.545,-231.909 h 58.087"
   inkscape:connector-curvature="0"
   id="path4985" />
    
        <path
   style="fill:none;stroke:#bbaaaa;stroke-width:2.83459997;stroke-linecap:round;stroke-linejoin:round"
   d="m 1263.471,-62.948 c 0,-59.002 -47.79,-106.896 -106.669,-106.896"
   inkscape:connector-curvature="0"
   id="path4987" />
    
        <path
   style="fill:none;stroke:#bbaaaa;stroke-width:2.83459997;stroke-linecap:round;stroke-linejoin:round"
   d="m 1156.761,-62.843 h 106.482"
   inkscape:connector-curvature="0"
   id="path4989" />
    
        <path
   style="fill:none;stroke:#bbaaa1;stroke-width:2.83459997;stroke-linecap:round;stroke-linejoin:round"
   d="m 691.733,625.21 c 0,58.878 47.789,106.667 106.666,106.667"
   inkscape:connector-curvature="0"
   id="path5121" />
    
        <path
   style="fill:none;stroke:#bbaaa1;stroke-width:2.83459997;stroke-linecap:round;stroke-linejoin:round"
   d="m 1117.866,646.76 c 0,-58.877 -47.789,-106.666 -106.666,-106.666"
   inkscape:connector-curvature="0"
   inkscape:label="path5187"
   id="path5187" />
    <path
   style="fill:#bbaaa1"
   d="M 670.96,230.085 H 657.953 V 336.769 H 670.96 V 230.085"
   inkscape:connector-curvature="0"
   id="path5227" />
    
        <path
   style="fill:none;stroke:#bbaaa1;stroke-width:2.83459997;stroke-linecap:round;stroke-linejoin:round"
   d="m 657.953,230.085 c -58.878,0 -106.667,47.789 -106.667,106.667"
   inkscape:connector-curvature="0"
   id="path5229" />
    <path
   style="fill:#887777"
   d="m 700.268,1353.067 v -15.761 h 1.329 1.329 v -83.362 -83.362 h -22.407 -22.407 v -15.761 -15.761 h 70.829 70.829 V 1002.149 865.238 h 7.406 7.405 v 236.034 236.033 h 25.065 25.065 v 15.761 15.762 h -82.222 -82.223 v -15.761 z m 98.742,-99.125 v -83.364 l -32.186,0.098 -32.187,0.097 -0.097,83.268 -0.096,83.267 h 32.282 32.282 v -83.366 z"
   inkscape:connector-curvature="0"
   id="path5273" />
    <path
   style="fill:#887777"
   d="m 324.343,1162.544 -7.725,-7.52 8.282,-8.056 8.283,-8.056 h 62.018 62.019 v 15.576 15.575 h -62.576 -62.576 z"
   inkscape:connector-curvature="0"
   id="path5275" />
    <path
   style="fill:#887777"
   d="m 304.686,1004.931 v -152.91 h 15.812 15.812 v 144.934 144.934 l -7.931,7.977 -7.932,7.977 h -7.881 -7.88 z"
   inkscape:connector-curvature="0"
   id="path5277" />
    <path
   style="fill:#887777"
   d="m 304.716,1335.501 v -33.326 h 15.856 15.855 v 17.471 17.47 h 35.031 35.031 v 15.855 15.856 h -50.887 -50.888 v -33.326 z"
   inkscape:connector-curvature="0"
   id="path5279" />
    <path
   style="fill:#887777"
   d="M 304.622,711.331 V 567.39 h 15.844 15.844 v 23.363 23.364 h 159.517 159.516 v -58.543 -58.543 h 7.788 7.787 v 58.543 58.543 h 10.205 10.205 v 7.787 7.788 H 513.818 336.31 V 742.481 855.27 H 320.465 304.621 V 711.331 Z"
   inkscape:connector-curvature="0"
   id="path5281" />
    <path
   style="fill:#887777"
   d="M 323.495,336.705 H 491.347 659.2 v 15.841 15.842 H 491.346 323.495 Z"
   sodipodi:nodetypes="cccccccc"
   inkscape:connector-curvature="0"
   id="path5285" />
    <path
   style="fill:#887777"
   d="m 654.714,371.09 v -18.846 l 0.146,-15.476 h 16.099 v 26.583 26.583 h -8.123 -8.122 z"
   sodipodi:nodetypes="ccccccccc"
   inkscape:connector-curvature="0"
   id="path5289" />
    <path
   style="fill:#887777"
   d="m 328.981,-39.158 -7.925,-7.788 7.925,-7.788 7.924,-7.788 h 31.35 31.351 v 15.576 15.575 h -31.351 -31.35 z"
   inkscape:connector-curvature="0"
   id="path5297" />
    <path
   style="fill:#887777"
   d="m 305.305,-276.323 v -27.123 h 15.844 15.845 v 27.123 27.123 h -15.845 -15.844 z"
   inkscape:connector-curvature="0"
   id="path5309" />
    <path
   style="fill:#887777"
   d="m 326.829,-649.765 -8.137,-7.884 8.15,-7.871 8.151,-7.871 h 31.603 31.603 v 15.755 15.755 h -31.616 -31.616 z"
   inkscape:connector-curvature="0"
   id="path5313" />
    <path
   style="fill:#887777"
   d="m 305.305,-859.973 v -22.557 h 17.187 17.187 v 15.844 15.844 h -2.148 -2.147 v 6.713 6.714 h -15.039 -15.038 v -22.558 z"
   inkscape:connector-curvature="0"
   id="path5315" />
    <path
   style="fill:#887777"
   d="m 829.551,-866.607 v -15.761 h 24.307 24.306 v 15.761 15.76 h -24.306 -24.307 z"
   inkscape:connector-curvature="0"
   id="path5331" />
    <path
   style="fill:#887777"
   d="m 581.661,-866.958 v -15.572 h 24.306 24.306 v 15.572 15.571 h -24.306 -24.306 z"
   inkscape:connector-curvature="0"
   id="path5333" />
    <path
   style="fill:#887777"
   d="m 1125.619,-321.154 v -88.489 h 15.571 15.571 v 76.716 76.716 h 5.316 5.317 v 7.561 7.562 l -5.127,0.225 -5.128,0.225 -0.229,3.987 -0.229,3.988 h -15.531 -15.531 z"
   inkscape:connector-curvature="0"
   id="path5341" />
    <path
   style="fill:#887777"
   d="m 932.363,-46.952 v -15.571 h 97.73 97.73 l 7.773,7.596 7.772,7.596 -8.164,7.976 -8.163,7.975 h -97.34 -97.34 v -15.572 z"
   inkscape:connector-curvature="0"
   id="path5343" />
    <path
   style="fill:#887777"
   d="m 799.007,-9.354 v -53.169 h 67.601 67.602 v 15.57 15.571 H 874.204 814.199 V 6.217 43.815 h -7.596 -7.596 z"
   inkscape:connector-curvature="0"
   id="path5345" />
    <path
   style="fill:#887777"
   d="m 1125.619,25.046 v -87.89 h 15.571 15.571 v 87.89 87.889 h -15.571 -15.571 z"
   inkscape:connector-curvature="0"
   id="path5351" />
    <path
   style="fill:#887777"
   d="m 999.532,453.957 v -85.83 h -92.666 -92.667 v 47.473 47.472 h -7.596 -7.596 V 354.075 245.078 h 7.596 7.596 v 45.953 45.953 h 110.137 110.136 v -37.218 -37.219 h 45.574 45.573 V 241.28 220.011 h 15.571 15.571 v 74.045 74.044 l -19.56,0.203 -19.559,0.203 -0.203,18.419 -0.203,18.419 h -51.257 -51.257 v 67.222 67.221 h -7.596 -7.596 v -85.83 z m 102.541,-74.817 v -11.014 h -43.675 -43.675 v 11.014 11.014 h 43.675 43.675 z m 23.546,-71.779 v -29.622 h -37.978 -37.979 v 29.622 29.623 h 37.979 37.978 z"
   inkscape:connector-curvature="0"
   id="path5353" />
    <path
   style="fill:#887777"
   d="m 799.793,763.626 c 0,-56.664 -0.233,-123.197 -0.517,-147.851 l -0.518,-44.825 h 7.912 7.911 v 147.851 147.852 h -7.395 -7.395 V 763.626 Z"
   inkscape:connector-curvature="0"
   id="path5355" />
    <path
   style="fill:#887777"
   d="m 1248.098,727.204 -7.785,-7.362 V 448.38 176.92 l 8.178,-15.372 8.177,-15.371 h 7.773 7.773 v 278.947 278.947 l -8.165,15.247 -8.166,15.247 z"
   inkscape:connector-curvature="0"
   id="path5357" />
    <path
   style="fill:#887777"
   d="M 1240.313,764.259 V 673.491 H 1119.922 999.532 V 660.2 646.907 h 7.563 7.563 l 0.223,5.507 0.224,5.507 113.554,0.38 113.555,0.38 6.456,3.297 c 5.305,2.708 7.981,4.807 15.002,11.761 l 8.545,8.464 v 86.413 86.412 h -15.951 -15.95 v -90.769 z"
   inkscape:connector-curvature="0"
   id="path5365" />
    <path
   style="fill:#887777"
   d="m 1248.465,1152.272 -8.152,-8.562 V 995.999 848.287 h 15.95 15.951 v 156.273 156.274 h -7.799 -7.798 z"
   inkscape:connector-curvature="0"
   id="path5367" />
    <path
   style="fill:#887777"
   d="m 1157.52,1154.673 v -15.57 h 43.219 43.218 l 8.148,7.799 8.149,7.799 -8.177,7.771 -8.177,7.772 h -43.19 -43.19 z"
   inkscape:connector-curvature="0"
   id="path5369" />
    <path
   style="fill:#887777"
   d="m 1241.02,1203.033 v -36.441 l 7.997,-9.039 7.996,-9.039 h 7.601 7.601 v 45.479 45.479 h -15.597 -15.598 z"
   inkscape:connector-curvature="0"
   id="path5371" />
    <path
   style="fill:#aaffff"
   d="M 305.305,152.834 V -31.371 h 4.941 4.94 V 152.834 337.04 h -4.94 -4.941 z"
   inkscape:connector-curvature="0"
   id="path5375" />
    <path
   style="fill:#aaffff"
   d="m 305.305,-195.51 v -53.69 h 5.19 5.191 v 53.689 53.689 h -5.191 -5.19 z"
   inkscape:connector-curvature="0"
   id="path5377" />
    <path
   style="fill:#aaffff"
   d="m 305.305,-357.045 v -53.6 h 5.3 5.301 v 53.6 53.6 h -5.301 -5.3 z"
   inkscape:connector-curvature="0"
   id="path5379" />
    <path
   style="fill:#aaffff"
   d="m 305.305,-755.402 v -82.012 h 5.273 5.273 v 82.012 82.011 h -5.273 -5.273 z"
   inkscape:connector-curvature="0"
   id="path5381" />
    <path
   style="fill:#aaffff"
   d="m 339.678,-877.327 v -5.203 H 460.67 581.661 v 5.203 5.203 H 460.67 339.678 Z"
   inkscape:connector-curvature="0"
   id="path5383" />
    <path
   style="fill:#aaffff"
   d="m 630.308,-877.263 v -5.126 h 99.574 99.573 v 5.126 5.127 h -99.573 -99.574 z"
   inkscape:connector-curvature="0"
   id="path5387" />
    <path
   style="fill:#aaffff"
   d="m 878.213,-877.039 v -5.376 h 87.238 87.238 v 5.376 5.377 h -87.238 -87.238 z"
   inkscape:connector-curvature="0"
   id="path5401" />
    <path
   style="fill:#aaffff"
   d="m 1146.387,-733.166 v -59.526 h 5.371 5.37 v 59.526 59.527 h -5.37 -5.371 z"
   inkscape:connector-curvature="0"
   id="path5405" />
    <path
   style="fill:#aaffff"
   d="m 1146.185,166.474 v -53.539 h 5.288 5.288 v 53.539 53.537 h -5.288 -5.288 z"
   inkscape:connector-curvature="0"
   id="path5413" />
    <path
   style="fill:#887777"
   d="m 304.716,1227.819 v -76.981 h 7.673 7.674 l 8.183,8.234 8.183,8.234 v 68.747 68.747 h -15.855 -15.856 v -76.981 z"
   inkscape:connector-curvature="0"
   id="path5433" />
    <path
   style="fill:#887777"
   d="m 1145.874,1353.474 v -15.237 l 47.378,-0.196 47.378,-0.196 0.195,-49.729 0.195,-49.73 h 15.598 15.597 v 65.164 65.163 h -63.171 -63.17 z"
   inkscape:connector-curvature="0"
   id="path5463" />
    <path
   style="fill:#bbaaa1"
   d="m 654.232,472.211 v -53.254 h 4.161 4.16 v 53.254 53.254 h -4.16 -4.161 z"
   inkscape:connector-curvature="0"
   id="path6323" />
    <path
   style="fill:#bbaaa1"
   d="m 999.429,593.281 v -53.448 h 3.402 3.402 v 53.448 53.448 h -3.402 -3.402 z"
   inkscape:connector-curvature="0"
   id="path6325" />
    
        <path
   style="fill:none;stroke:#bbaaa1;stroke-width:2.83459997;stroke-linecap:round;stroke-linejoin:round"
   d="M 808.399,463.694 H 915.066"
   inkscape:connector-curvature="0"
   id="path5007" />
    
        <path
   style="fill:none;stroke:#bbaaa1;stroke-width:2.83459997;stroke-linecap:round;stroke-linejoin:round"
   d="m 808.399,570.361 c 58.878,0 106.667,-47.789 106.667,-106.667"
   inkscape:connector-curvature="0"
   id="path5005" />
    <path
   style="fill:#aaffff"
   d="m 660.407,63.319 v -82.712 h 5.317 5.316 v 82.712 82.713 h -5.316 -5.317 z"
   inkscape:connector-curvature="0"
   id="path7154" />
    <path
   style="fill:#887777"
   d="m 1125.322,-821.887 v -29.196 h -36.316 -36.316 v -15.666 -15.666 h 52.22 52.22 v 44.862 44.861 h -15.903 -15.903 v -29.195 z"
   inkscape:connector-curvature="0"
   id="path7226" />
    <path
   style="fill:#887777"
   d="m 1126.016,-602.192 v -39.524 h -24.281 -24.281 v -15.962 -15.961 h 39.838 39.837 v 55.486 55.486 h -15.556 -15.557 z"
   inkscape:connector-curvature="0"
   id="path7228" />
    <path
   style="fill:#887777"
   d="m 1125.619,-486.237 v -77.602 h 15.571 15.57 v 77.602 77.602 h -15.57 -15.571 z"
   inkscape:connector-curvature="0"
   id="path5351-0" />
    <path
   style="fill:#aaffff"
   d="m 1156.645,-48.244 v -2.563 h 90.577 90.578 v 2.563 2.563 h -90.578 -90.577 z"
   inkscape:connector-curvature="0"
   id="path6303-1" />
    <path
   style="fill:#bbaaa1"
   d="m 1005.132,647.341 v -1.419 h 56.366 56.367 v 1.419 1.419 h -56.367 -56.366 z"
   inkscape:connector-curvature="0"
   id="path6335-5" />
    <path
   style="fill:#887777"
   d="m 305.305,-542.019 v -131.373 h 15.844 15.845 v 131.373 131.374 h -15.845 -15.844 z"
   inkscape:connector-curvature="0"
   id="path5309-2" />
    <path
   style="fill:#887777"
   d="m 305.305,-86.595 v -55.226 h 15.8 15.8 v 55.226 55.225 h -15.8 -15.8 z"
   inkscape:connector-curvature="0"
   id="path5309-5" />
    <path
   style="fill:#887777"
   d="M 305.292,397.392 V 336.67 h 15.8 15.801 v 60.722 60.722 h -15.801 -15.8 z"
   inkscape:connector-curvature="0"
   id="path5309-5-5" />
    <path
   style="fill:#bbaaa1"
   d="m 805.697,219.855 v -53.254 h 4.16 4.161 v 53.254 53.254 h -4.161 -4.16 z"
   inkscape:connector-curvature="0"
   id="path6323-6" />
    <path
   style="fill:#bbaaa1"
   d="M 805.728,67.875 V 14.621 h 4.161 4.16 v 53.254 53.254 h -4.16 -4.161 z"
   inkscape:connector-curvature="0"
   id="path6323-6-1" />
    
    
    <path
   style="fill:#887777"
   d="m 639.353,187.924 v -41.893 h 15.844 15.845 v 41.893 41.894 h -15.845 -15.844 z"
   inkscape:connector-curvature="0"
   id="path5303" />
    <path
   style="fill:#887777"
   d="m 398.45,-46.968 v -15.575 h 85.815 85.815 v 15.575 15.576 H 484.265 398.45 Z"
   inkscape:connector-curvature="0"
   id="path5299" />
    <path
   style="fill:#887777"
   d="m 639.478,-25.195 v -6.176 H 604.03 568.582 v -15.576 -15.575 h 51.292 51.293 v 21.752 21.752 h -15.845 -15.844 z"
   inkscape:connector-curvature="0"
   id="path5301" />
    
<path
   style="fill:#bbaaa1"
   d="m 526.108,1156.452 v -3.419 h 56.367 56.366 v 3.419 3.419 h -56.366 -56.367 z"
   inkscape:connector-curvature="0"
   id="path6335-3-9" /><path
   style="fill:#bbaaa1"
   d="m 454.22,1151.333 v -3.42 h 56.366 56.366 v 3.42 3.419 H 510.586 454.22 Z"
   inkscape:connector-curvature="0"
   id="path6335-3" /></g><g
     inkscape:label="室内电气"
     transform="translate(-494.26763,214.25335)"
     id="elec">
    <g
   inkscape:label="主卧大灯"
   transform="matrix(0.11416159,0,0,0.11416159,1058.4166,1116.5236)"
   id="switch.wall_switch_left_158d0002e801a0">
        <g
   inkscape:label="light"
   id="layer3"
   transform="rotate(90,2046.3575,4218.7095)">
            <g
   id="g1174">
                <path
   style="fill:#ffd15c"
   d="m 2046.353,3877.376 c -7.109,0 -14.217,5.688 -14.217,14.226 v 48.357 c 0,7.109 5.688,14.226 14.217,14.226 8.537,0 14.226,-5.688 14.226,-14.226 v -48.357 c 0,-8.537 -7.109,-14.226 -14.226,-14.226 z"
   inkscape:connector-curvature="0"
   id="path1160" />
                <path
   style="fill:#ffd15c"
   d="m 1855.783,3964.133 c -5.688,-5.688 -14.226,-5.688 -19.914,0 -5.688,5.689 -5.688,14.226 0,19.914 l 34.131,34.131 c 5.688,5.688 14.226,5.688 19.914,0 5.688,-5.688 5.688,-14.226 0,-19.906 z"
   inkscape:connector-curvature="0"
   id="path1162" />
                <path
   style="fill:#ffd15c"
   d="m 1811.695,4160.4 h -48.357 c -7.117,0 -14.226,5.688 -14.226,14.226 v 0 c 0,7.109 5.688,14.217 14.226,14.217 h 48.357 c 7.109,0 14.217,-5.688 14.217,-14.217 v 0 c 0,-7.117 -7.109,-14.226 -14.217,-14.226 z"
   inkscape:connector-curvature="0"
   id="path1164" />
                <path
   style="fill:#ffd15c"
   d="m 1870,4331.064 -34.131,34.14 c -5.688,5.689 -5.688,14.217 0,19.906 5.689,5.688 14.226,5.688 19.906,0 l 34.14,-34.131 c 5.688,-5.688 5.688,-14.226 0,-19.914 -5.689,-5.689 -14.226,-5.689 -19.915,-10e-4 z"
   inkscape:connector-curvature="0"
   id="path1166" />
                <path
   style="fill:#ffd15c"
   d="m 2222.715,4331.064 c -5.688,-5.688 -14.226,-5.688 -19.914,0 -5.689,5.697 -5.689,14.226 0,19.914 l 34.131,34.131 c 5.688,5.688 14.226,5.688 19.914,0 5.689,-5.688 5.689,-14.217 0,-19.906 z"
   inkscape:connector-curvature="0"
   id="path1168" />
                <path
   style="fill:#ffd15c"
   d="m 2329.377,4160.4 h -48.357 c -7.108,0 -14.217,5.688 -14.217,14.226 v 0 c 0,7.109 5.689,14.217 14.217,14.217 h 48.357 c 7.108,0 14.226,-5.688 14.226,-14.217 v 0 c 0,-7.117 -5.689,-14.226 -14.226,-14.226 z"
   inkscape:connector-curvature="0"
   id="path1170" />
                <path
   style="fill:#ffd15c"
   d="m 2236.932,3964.133 -34.131,34.14 c -5.689,5.688 -5.689,14.217 0,19.906 5.688,5.688 14.226,5.688 19.914,0 l 34.131,-34.131 c 5.689,-5.688 5.689,-14.226 0,-19.914 -5.689,-5.69 -14.226,-5.69 -19.914,0 z"
   inkscape:connector-curvature="0"
   id="path1172" />
            </g>
            <g
   id="g1158">
                <path
   style="fill:#415a6b"
   d="m 2123.153,4451.952 h -153.599 c -8.529,0 -15.637,-7.108 -15.637,-15.637 v 0 c 0,-8.537 7.109,-15.646 15.637,-15.646 h 153.599 c 8.537,0 15.646,7.109 15.646,15.646 v 0 c 0,8.529 -7.109,15.637 -15.646,15.637 z"
   inkscape:connector-curvature="0"
   id="path1154" />
                <path
   style="fill:#415a6b"
   d="m 2123.153,4501.738 h -153.599 c -8.529,0 -15.637,-7.117 -15.637,-15.646 v 0 c 0,-8.537 7.109,-15.646 15.637,-15.646 h 153.599 c 8.537,0 15.646,7.108 15.646,15.646 v 0 c 0,8.529 -7.109,15.646 -15.646,15.646 z"
   inkscape:connector-curvature="0"
   id="path1156" />
            </g>
            <g
   id="g1152">
                <path
   style="fill:#344a5e"
   d="m 2002.265,4530.18 c 7.117,17.065 24.183,29.863 44.088,29.863 19.914,0 36.98,-12.797 44.097,-29.863 z"
   inkscape:connector-curvature="0"
   id="path1148" />
                <path
   style="fill:#344a5e"
   d="m 2098.979,4531.6 h -103.822 c -14.226,0 -25.603,-11.377 -25.603,-25.603 v -108.082 h 155.027 v 108.082 c 0,14.226 -11.377,25.603 -25.602,25.603 z"
   inkscape:connector-curvature="0"
   id="path1150" />
            </g>
            <path
   style="fill:#ffffff"
   d="m 2027.868,4402.175 h 12.797 l -56.885,-211.904 c 1.42,0 2.84,0 4.269,0 7.109,0 14.217,-2.849 19.906,-8.537 2.849,-2.84 5.689,-4.269 9.957,-4.269 4.268,0 7.109,1.428 9.957,4.269 9.957,11.377 27.023,11.377 36.98,0 2.84,-2.84 5.688,-4.269 9.957,-4.269 2.84,0 7.109,1.428 9.948,4.269 5.697,5.688 11.377,8.537 19.914,8.537 1.42,0 2.84,0 4.268,0 l -55.465,211.904 h 12.797 l 58.314,-221.861 c 0,-2.848 0,-5.688 -2.849,-7.108 -2.84,-1.428 -5.688,0 -7.108,1.42 -2.849,2.84 -5.689,4.269 -8.537,4.269 -4.26,0 -7.109,-1.428 -11.377,-4.269 -5.688,-5.688 -11.377,-8.537 -18.486,-8.537 -7.108,0 -12.797,2.849 -18.494,8.537 -5.688,5.688 -14.217,5.688 -19.906,0 -4.269,-5.688 -11.377,-8.537 -18.494,-8.537 v 0 c -7.109,0 -14.217,2.849 -18.486,8.537 -2.84,2.84 -7.109,4.269 -11.377,4.269 -2.849,0 -7.109,-1.428 -8.537,-4.269 -1.42,-1.42 -4.26,-2.848 -7.109,-1.42 -2.84,1.42 -4.269,4.26 -2.84,7.108 z"
   inkscape:connector-curvature="0"
   id="path1146" />
            <path
   style="fill:#ffd15c"
   d="m 2124.581,4399.335 c 8.529,-28.442 25.594,-54.045 48.357,-73.959 42.66,-35.551 69.682,-89.597 69.682,-149.33 0,-110.931 -92.437,-201.956 -206.216,-196.267 -100.982,4.269 -183.47,89.596 -186.31,190.578 -1.429,62.574 25.594,118.048 69.682,155.019 24.183,19.914 41.248,45.517 49.777,73.959 z"
   inkscape:connector-curvature="0"
   inkscape:label="path1144"
   id="path1144" />
        </g>
    </g>
</g></g>


<text
   font-size="12"
   id="fan.xiaomi_miio_device"
   x="103.4092"
   y="184.21223"
   style="font-size:64px;font-family:AdobeSongStd-Light-GBpc-EUC-H;stroke-width:8.55040646"
   transform="scale(0.9583547,1.043455)"
   inkscape:label="文字信息"><tspan
     style="font-size:64px"
     id="tspan1016">文字信息</tspan></text>



<text
   inkscape:label="文字信息"
   transform="scale(0.9583547,1.043455)"
   style="font-size:64px;font-family:AdobeSongStd-Light-GBpc-EUC-H;stroke-width:8.55040646"
   y="295.34833"
   x="100.45786"
   id="fan.xiaomi_miio_device"
   font-size="12"><tspan
     id="tspan1018"
     style="font-size:64px">文字信息</tspan></text>
</svg>